<?xml version="1.0" standalone="no"?>
<!DOCTYPE svg PUBLIC "-//W3C//DTD SVG 20010904//EN"
 "http://www.w3.org/TR/2001/REC-SVG-20010904/DTD/svg10.dtd">
<svg version="1.0" xmlns="http://www.w3.org/2000/svg"
 width="275.000000pt" height="183.000000pt" viewBox="0 0 275.000000 183.000000"
 preserveAspectRatio="xMidYMid meet">
<metadata>
Created by potrace 1.10, written by Peter Selinger 2001-2011
</metadata>
<g transform="translate(0.000000,183.000000) scale(0.100000,-0.100000)"
fill="#000000" stroke="none">
<path d="M1241 1584 c-265 -71 -429 -345 -366 -612 63 -267 318 -434 589 -387
284 50 473 327 415 607 -39 186 -189 344 -374 393 -73 19 -192 18 -264 -1z
m131 -132 l2 -127 6 130 5 130 45 -4 c25 -1 50 -6 56 -9 7 -5 2 -36 -16 -100
-15 -51 -23 -95 -19 -98 4 -2 13 15 19 38 6 24 19 69 28 100 l17 57 48 -21
c26 -11 47 -24 47 -29 0 -4 -13 -31 -30 -59 -33 -55 -34 -60 -21 -60 5 0 21
25 37 55 16 30 33 55 38 55 4 0 26 -14 48 -31 l39 -32 -52 -53 c-30 -30 -49
-54 -44 -54 5 0 31 21 58 48 l48 47 35 -40 c18 -22 34 -43 34 -47 0 -3 -26
-21 -57 -39 -32 -18 -53 -34 -46 -36 6 -2 29 7 50 20 21 13 44 27 51 31 8 5
19 -6 32 -36 11 -24 20 -48 20 -55 0 -7 -26 -18 -60 -25 -33 -6 -60 -16 -60
-20 0 -12 21 -10 75 7 27 8 51 13 53 10 2 -2 6 -21 9 -42 l5 -38 -109 0 c-91
0 -107 2 -96 13 22 23 16 68 -13 91 -15 12 -34 21 -44 21 -30 0 -70 -39 -70
-69 0 -33 25 -71 48 -71 9 0 -12 -16 -47 -35 -35 -19 -72 -42 -82 -50 -16 -16
-17 -16 -12 4 7 26 -22 61 -50 61 -26 0 -57 -28 -57 -52 0 -24 38 -61 56 -54
20 8 17 -1 -9 -29 l-23 -25 -36 43 c-34 42 -35 44 -17 56 14 8 17 16 11 28 -5
9 -7 24 -5 34 3 11 -1 21 -11 25 -12 5 -15 14 -11 38 6 29 3 33 -36 55 -23 13
-39 19 -36 14 8 -12 -18 -37 -30 -30 -4 3 -14 -2 -22 -10 -12 -13 -11 -14 7
-9 11 4 23 2 27 -4 4 -6 -4 -10 -18 -10 -14 0 -31 -9 -38 -20 -14 -20 -15 -20
-59 -5 -25 9 -82 19 -128 22 -78 6 -82 7 -76 27 4 12 7 22 9 24 1 1 24 -5 50
-13 29 -8 52 -10 55 -5 3 5 11 5 20 0 24 -16 49 -11 72 12 13 13 32 21 43 20
17 -3 15 1 -8 20 -17 14 -30 35 -32 53 -2 17 -6 41 -10 55 -6 21 2 16 47 -27
91 -89 78 -59 -16 36 l-88 88 40 32 c22 17 44 31 48 31 5 -1 38 -52 73 -115
36 -63 68 -115 73 -115 12 0 12 0 -57 119 -36 62 -65 116 -65 120 0 5 6 11 13
14 6 3 28 12 48 21 l37 15 46 -177 c54 -204 58 -214 63 -192 2 8 -19 95 -45
193 -48 174 -49 177 -28 182 33 7 80 11 89 7 4 -2 8 -60 9 -130z m-327 -42
c16 -17 16 -20 2 -20 -18 0 -26 -11 -32 -41 -6 -31 -12 -34 -40 -21 -32 15
-31 20 6 65 35 43 40 44 64 17z m22 -45 c8 -22 -6 -33 -17 -15 -7 11 -10 5
-10 -21 0 -25 -4 -36 -15 -36 -17 0 -19 10 -6 35 5 9 12 25 15 35 7 21 25 22
33 2z m-67 -87 c-2 -7 -4 -28 -4 -45 0 -18 -1 -33 -3 -33 -24 0 -93 25 -93 34
0 6 9 31 20 55 l20 43 32 -21 c18 -11 31 -27 28 -33z m87 36 c3 -8 -2 -23 -10
-32 -20 -19 -35 -9 -17 13 9 11 9 15 1 15 -7 0 -9 5 -6 10 9 15 25 12 32 -6z
m-47 -61 c0 -19 -4 -24 -16 -19 -8 3 -12 2 -9 -4 3 -6 12 -10 20 -10 7 0 15
-5 17 -10 2 -7 11 -5 23 4 20 15 20 15 -2 9 -16 -4 -23 -1 -23 10 0 22 28 43
42 29 15 -15 1 -60 -22 -67 -49 -15 -84 26 -60 71 16 28 30 22 30 -13z m228
-59 c17 -11 21 -21 16 -40 -4 -16 -1 -31 10 -43 16 -18 16 -20 -10 -46 -24
-24 -28 -25 -42 -11 -15 15 -14 16 6 16 26 0 30 27 6 37 -16 6 -37 -15 -28
-29 3 -4 1 -8 -5 -8 -16 0 -23 20 -12 34 6 7 9 28 6 46 -4 31 8 60 24 60 4 0
17 -7 29 -16z m323 2 c-15 -18 -3 -48 18 -44 9 2 17 13 19 26 4 27 22 30 22 3
0 -41 -71 -57 -78 -18 -5 24 5 47 19 47 9 0 9 -3 0 -14z m-521 -72 c96 -28
184 -85 245 -160 l37 -45 -28 -54 -29 -54 -30 57 c-49 92 -135 176 -227 222
-44 22 -90 40 -102 40 -11 0 -28 5 -36 11 -21 15 99 3 170 -17z m-83 -26 c65
-24 158 -91 206 -149 19 -25 49 -73 66 -108 24 -51 28 -68 20 -90 -6 -15 -13
-55 -17 -88 l-7 -61 -55 22 -55 22 -11 80 c-14 97 -32 148 -75 220 -32 53
-105 129 -159 167 l-25 17 30 -6 c17 -4 54 -15 82 -26z m791 6 c-148 -29 -271
-120 -333 -248 -37 -76 -59 -183 -49 -235 6 -29 5 -31 -24 -31 -16 0 -44 3
-62 7 l-33 6 6 76 c8 108 63 216 151 299 103 96 214 140 351 140 l60 0 -67
-14z m-822 -58 c52 -44 105 -123 132 -197 23 -63 40 -179 26 -179 -17 0 -84
61 -78 71 3 5 0 8 -8 7 -7 -2 -12 3 -10 10 1 8 -2 11 -7 8 -13 -8 -64 62 -55
76 4 6 3 8 -3 5 -21 -13 -72 139 -73 216 0 44 8 42 76 -17z m825 17 c-35 -21
-87 -64 -116 -95 -81 -87 -117 -170 -140 -319 -5 -33 -10 -38 -40 -43 -20 -4
-40 -4 -45 -1 -6 3 -10 1 -10 -5 0 -6 -4 -8 -10 -5 -13 8 -13 81 1 147 17 82
59 158 119 219 64 65 137 105 224 124 87 19 87 19 17 -22z m93 -5 c-26 -154
-62 -234 -143 -317 -52 -52 -176 -130 -188 -118 -12 13 19 147 52 214 42 90
127 178 213 222 31 17 60 30 64 31 4 0 5 -15 2 -32z m-458 -10 c5 -8 2 -9 -9
-5 -23 9 -31 -10 -10 -22 16 -9 16 -10 1 -11 -21 0 -32 16 -24 35 6 18 32 20
42 3z"/>
<path d="M1472 1336 c-78 -46 -91 -56 -70 -52 35 6 58 18 52 28 -4 7 -2 8 4 4
7 -4 12 -2 12 5 0 7 3 9 6 6 4 -3 14 -2 24 3 13 7 22 2 39 -21 18 -25 28 -30
49 -25 l27 5 -27 -12 c-32 -15 -68 -46 -68 -60 0 -5 9 2 20 16 30 37 72 44
118 17 37 -22 37 -22 18 -1 -11 12 -25 21 -32 21 -8 0 -19 9 -26 19 -9 15 -16
17 -30 10 -14 -8 -23 -4 -43 18 -22 25 -23 29 -8 40 9 7 14 15 12 17 -3 3 -37
-14 -77 -38z"/>
<path d="M1460 1293 c-14 -9 -26 -17 -27 -18 -8 -5 38 -110 47 -110 7 0 18 19
26 42 13 38 13 46 -1 73 -9 16 -17 30 -18 30 -1 0 -14 -8 -27 -17z"/>
<path d="M1404 1252 c-8 -12 -8 -24 -1 -40 9 -19 6 -27 -21 -55 -36 -37 -29
-58 18 -56 20 1 21 2 5 6 -49 11 -50 13 -7 51 l43 37 -13 37 c-12 33 -15 36
-24 20z"/>
<path d="M1510 1174 c0 -14 -4 -23 -8 -20 -15 9 -52 -24 -52 -45 0 -13 -4 -18
-12 -13 -10 5 -10 4 -1 -6 18 -19 43 -22 76 -9 21 9 25 15 16 25 -6 7 -7 19
-3 25 4 7 3 9 -4 5 -7 -4 -9 5 -5 29 3 19 3 35 -1 35 -3 0 -6 -12 -6 -26z"/>
<path d="M1238 1178 c-6 -17 3 -58 12 -58 10 0 30 57 23 64 -11 10 -31 7 -35
-6z"/>
<path d="M596 343 c-21 -49 -40 -93 -42 -99 -4 -7 4 -10 20 -7 14 3 28 14 31
24 9 28 91 27 100 -1 4 -12 15 -20 30 -20 23 0 22 1 -19 95 -55 127 -69 128
-120 8z m79 -10 c5 -20 3 -23 -19 -23 -30 0 -29 0 -16 36 11 29 23 24 35 -13z"/>
<path d="M803 406 c-23 -20 -28 -32 -28 -71 0 -60 35 -95 96 -95 61 0 79 14
79 60 0 33 -3 40 -20 40 -16 0 -20 -7 -20 -30 0 -23 -5 -31 -25 -36 -49 -12
-89 48 -61 91 20 30 49 39 77 25 28 -15 48 2 29 25 -20 25 -94 20 -127 -9z"/>
<path d="M990 335 c0 -88 1 -95 20 -95 16 0 20 7 20 30 0 40 30 40 53 1 11
-19 27 -30 47 -33 16 -3 30 -4 30 -3 0 1 -11 16 -25 35 -22 30 -23 35 -10 50
8 9 15 33 15 54 0 43 -22 56 -101 56 l-49 0 0 -95z m98 55 c18 0 15 -47 -4
-54 -40 -15 -54 -7 -54 30 0 33 2 36 23 30 12 -3 28 -6 35 -6z"/>
<path d="M1206 399 c-34 -40 -34 -88 0 -128 56 -67 174 -24 174 64 0 55 -44
95 -103 95 -38 0 -49 -5 -71 -31z m111 -21 c13 -12 23 -31 23 -43 0 -27 -35
-65 -60 -65 -28 0 -60 35 -60 65 0 29 32 65 57 65 9 0 27 -10 40 -22z"/>
<path d="M1420 335 c0 -88 1 -95 20 -95 16 0 20 7 20 38 l0 37 45 -3 c40 -4
45 -2 45 17 0 18 -6 21 -45 21 -40 0 -45 2 -45 23 0 20 4 22 45 19 40 -4 45
-2 45 17 0 19 -6 21 -65 21 l-65 0 0 -95z"/>
<path d="M1594 335 c-41 -94 -42 -95 -19 -95 15 0 26 8 30 20 9 29 91 29 100
0 4 -13 15 -20 30 -20 23 0 23 0 -18 95 -33 75 -46 95 -62 95 -16 0 -29 -20
-61 -95z m81 -2 c5 -20 3 -23 -19 -23 -30 0 -30 0 -14 35 12 27 22 24 33 -12z"/>
<path d="M1780 335 c0 -94 0 -95 25 -95 22 0 24 3 19 30 -6 26 -3 30 14 30 12
0 28 -12 38 -29 11 -19 28 -31 46 -33 34 -5 34 -1 4 36 -23 28 -23 29 -5 47
25 25 24 64 -1 89 -16 16 -33 20 -80 20 l-60 0 0 -95z m94 55 c33 -12 33 -37
2 -52 -33 -14 -56 -4 -56 25 0 38 11 44 54 27z"/>
<path d="M1980 335 l0 -95 26 0 c26 0 26 0 19 60 -4 33 -4 60 -1 60 4 0 17
-25 31 -55 13 -30 30 -55 37 -55 7 0 25 26 40 58 l26 57 1 -62 c1 -56 3 -63
21 -63 19 0 20 7 20 95 l0 95 -29 0 c-25 0 -31 -7 -53 -56 l-26 -56 -25 56
c-23 50 -29 56 -56 56 l-31 0 0 -95z"/>
</g>
</svg>
